<!DOCTYPE svg PUBLIC "-//W3C//DTD SVG 1.1//EN" "http://www.w3.org/Graphics/SVG/1.1/DTD/svg11.dtd">
<!-- Uploaded to: SVG Repo, www.svgrepo.com, Transformed by: SVG Repo Mixer Tools -->
<svg fill="#000000" width="800px" height="800px" viewBox="0 0 32 32" version="1.1" xmlns="http://www.w3.org/2000/svg" transform="rotate(180)">
<g id="SVGRepo_bgCarrier" stroke-width="0"/>
<g id="SVGRepo_tracerCarrier" stroke-linecap="round" stroke-linejoin="round"/>
<g id="SVGRepo_iconCarrier"> <title>forward</title> <path d="M0 24q0 0.544 0.288 1.056t0.768 0.736q0.48 0.256 1.056 0.224t0.992-0.32l12-8q0.896-0.608 0.896-1.696t-0.896-1.632l-12-8q-0.448-0.32-0.992-0.352t-1.056 0.224q-0.48 0.256-0.768 0.736t-0.288 1.024v16zM16 24q0 0.544 0.288 1.056t0.768 0.736q0.48 0.256 1.056 0.224t0.992-0.32l12-8q0.896-0.608 0.896-1.696t-0.896-1.632l-12-8q-0.448-0.32-0.992-0.352t-1.056 0.224q-0.48 0.256-0.768 0.736t-0.288 1.024v16z"/> </g>
</svg>